Simulation
nRows=42
nColumns=15
endheader
time  TH_x TH_y TH_z SC_y  SC_z  SC_x  AC_y  AC_z  AC_x  GH_y  GH_z  GH_yy  EL_x  PS_y
0.0  0.000000  0.000000  0.000000  -34.30410738737427  -3.6713182767042274  -4.419381751603659  47.662790121146294  0.6578394354468134  1.4754532742482098  27.674236788577915  5.215649325983495  -0.935770462972997  4.881232513124048  120.000000
0.031000000000000014  0.000000  0.000000  0.000000  -35.03687042734491  -3.8752123366980946  -5.501412926350648  48.0275788262242  2.046934304445951  2.30682814848449  27.704766445348127  6.498955775727799  -1.284720288604547  5.206347474765071  120.000000
0.06200000000000003  0.000000  0.000000  0.000000  -35.424737008227424  -4.356951626238584  -6.6236011247932804  48.229947710389915  3.437495973166033  2.8489093883696293  27.425402180036215  7.79580422660324  -1.4115457026686726  5.480212352219141  120.000000
0.09300000000000004  0.000000  0.000000  0.000000  -35.45837129767431  -4.725720952327745  -7.835143819148367  48.17874731987322  4.718527848265397  3.351207032276976  27.70790352000634  8.968283844734449  -2.128321222274426  5.764408141032673  120.000000
0.12400000000000005  0.000000  0.000000  0.000000  -35.27517943024003  -4.825077329196586  -9.068065809919903  47.89180265960913  5.8499143863143575  3.9356394927178964  28.41445102925621  9.896084640845459  -3.2087337271544767  6.133574125997676  120.000000
0.15500000000000008  0.000000  0.000000  0.000000  -35.033682853947354  -4.650333744276747  -10.25528843769984  47.48155962953708  6.817971909611561  4.625652850744652  29.29613541518137  10.555599877997127  -4.35524298497019  6.5964670299075845  120.000000
0.18600000000000008  0.000000  0.000000  0.000000  -34.8420673098395  -4.263206267230788  -11.355417611760315  47.02473383281433  7.640605360900493  5.3976364509721435  30.142707781241047  10.957532531199021  -5.355684069663077  7.173582266188149  120.000000
0.21700000000000008  0.000000  0.000000  0.000000  -34.745061978155846  -3.742624132557861  -12.35528870320991  46.57180480685533  8.347401299297694  6.207339048000936  30.77686487544501  11.137388733613596  -6.055210844058605  7.884987766047871  120.000000
0.2480000000000001  0.000000  0.000000  0.000000  -34.741707432720816  -3.1529459981976067  -13.2559983363891  46.13334025036141  8.973135575375569  7.013608435325104  31.088952326593493  11.124007942469301  -6.3825567130433045  8.760595765274438  120.000000
0.27900000000000014  0.000000  0.000000  0.000000  -34.81333212845397  -2.536335409958118  -14.062139932467655  45.70833940737151  9.537604381762586  7.787175350887139  30.9681364368484  10.946679070964755  -6.265967502939335  9.826135276334558  120.000000
0.31000000000000016  0.000000  0.000000  0.000000  -34.94193695316421  -1.9162910393423616  -14.776453375307568  45.29281918132429  10.051979439504304  8.50588730004169  30.32300664538043  10.631822815833933  -5.648418242086356  11.102321148494235  120.000000
0.34100000000000014  0.000000  0.000000  0.000000  -35.11636603750344  -1.3069845813749135  -15.396749247195288  44.885654749177014  10.515258411074406  9.157330495253595  29.009451698569308  10.208036578135946  -4.405957247626748  12.597763729693252  120.000000
0.37200000000000016  0.000000  0.000000  0.000000  -35.33198771951048  -0.7185900931615297  -15.918284174207791  44.494824073024674  10.924133826061272  9.731202122840976  26.864832115680123  9.709235717376412  -2.380640949708023  14.300607748583746  120.000000
0.4030000000000002  0.000000  0.000000  0.000000  -35.58781822476533  -0.15900913120355256  -16.332943324791998  44.13142330858669  11.269525422154011  10.222909716857007  23.674278676632312  9.177473524031281  0.6571609864808486  16.181978839940214  120.000000
0.43400000000000016  0.000000  0.000000  0.000000  -35.883013824141145  0.3666548622817555  -16.632694342060496  43.80874358797916  11.544241870357451  10.626248044505395  19.24785579541988  8.6651089042247  4.92582046148825  18.202401026939533  120.000000
0.4650000000000002  0.000000  0.000000  0.000000  -36.21260254127008  0.855894285725122  -16.810306744953856  43.534196836760565  11.740989685447268  10.934590147754497  13.482721374414092  8.233908700011263  10.565085966026633  20.3209606162693  120.000000
0.4960000000000002  0.000000  0.000000  0.000000  -36.56550544512109  1.308831803857369  -16.862905800394277  43.301956159865625  11.85720292153498  11.14089257961845  6.518791923181231  7.943591926695207  17.468495064449314  22.50037635605595  120.000000
0.5270000000000002  0.000000  0.000000  0.000000  -36.92837353903317  1.7287883474459662  -16.79416157075142  43.09448334092566  11.893537000039986  11.24008523451531  -1.1959452665440153  7.839704287658238  25.216314707329985  24.711645075178936  120.000000
0.5580000000000003  0.000000  0.000000  0.000000  -37.291312461453835  2.1232423023443245  -16.61338237304757  42.88687917983452  11.854681600233903  11.226165441234842  -8.937726870856102  7.934578154913443  33.105578531635174  26.932342054948354  120.000000
0.5890000000000003  0.000000  0.000000  0.000000  -37.65013566720248  2.5035349253895056  -16.332163361245534  42.648447872963956  11.744741790820502  11.09473705567709  -15.970815793566675  8.198422368783111  40.415454041586486  29.143632249639065  120.000000
0.6200000000000003  0.000000  0.000000  0.000000  -38.00805028424301  2.8826934571969267  -15.95968429633577  42.352851330470614  11.56648455239848  10.841697869597345  -21.812180466586145  8.571046631350946  46.67230206514484  31.32961285609347  120.000000
0.6510000000000002  0.000000  0.000000  0.000000  -38.374374207323214  3.2738327143196764  -15.499059577843965  41.98584769981475  11.317860463053785  10.465373716882613  -26.308348617007358  8.989085530538812  51.728153258354645  33.47911844747566  120.000000
0.6820000000000003  0.000000  0.000000  0.000000  -38.761648576495126  3.688871649674031  -14.943740214256781  41.551602504355635  10.990948553650586  9.966861263818846  -29.54883209323654  9.408379058796147  55.67171043308238  35.588684949262024  120.000000
0.7130000000000003  0.000000  0.000000  0.000000  -39.18183965978402  4.138461707344082  -14.28174070678053  41.07406854434624  10.573747188890971  9.35431958818315  -31.74316418279032  9.814864348366168  58.704067618536314  37.663343838274  120.000000
0.7440000000000003  0.000000  0.000000  0.000000  -39.64423799317405  4.629954983674309  -13.516580705751181  40.58981761089014  10.06571630702221  8.657187208013422  -33.148730530989056  10.222121810096057  61.0639682225901  39.71703134095949  120.000000
0.7750000000000004  0.000000  0.000000  0.000000  -40.15417992339659  5.164781317667767  -12.668181084000892  40.13999574274474  9.478613104654876  7.922130176320885  -34.02231946703763  10.661847763553249  62.98117427496563  41.769748155117604  120.000000
0.8060000000000004  0.000000  0.000000  0.000000  -40.71195378101465  5.73776914290839  -11.751028947589571  39.763882585848826  8.824896692114217  7.19032172117006  -34.598588001482696  11.168846777567309  64.65752529869044  43.84357957230004  120.000000
0.8370000000000004  0.000000  0.000000  0.000000  -41.311917281597225  6.342076175861814  -10.764508404722758  39.49152442493453  8.109012557427443  6.486444516894281  -35.05919600073477  11.765995552449958  66.24259409290678  45.95415199489002  120.000000
0.8680000000000003  0.000000  0.000000  0.000000  -41.94302832011736  6.97327349629165  -9.704374584292863  39.33497568147689  7.332930284689188  5.824959387031335  -35.51810691124862  12.454230483078833  67.82358277744328  48.10480395014885  120.000000
0.8990000000000004  0.000000  0.000000  0.000000  -42.59183128914937  7.624876824645425  -8.57040549210949  39.2845915982201  6.504798692721482  5.208773507915395  -36.01717005191128  13.21443960236779  69.42581549893386  50.29347618286668  120.000000
0.9300000000000004  0.000000  0.000000  0.000000  -43.243801481376664  8.286735030772633  -7.367858612420009  39.314884315878466  5.641302536990608  4.630321432351936  -36.55144116933073  14.01494456123271  71.03762850904586  52.51539488757171  120.000000
0.9610000000000004  0.000000  0.000000  0.000000  -43.88241342639094  8.948854060629461  -6.106747464248851  39.39569493396657  4.762161779449343  4.075850592394288  -37.09338171041238  14.819034525598854  72.62993938257159  54.76176094827722  120.000000
0.9920000000000004  0.000000  0.000000  0.000000  -44.49412828498568  9.603712778407543  -4.799358143914203  39.501234506053805  3.885424306092849  3.5337659774042085  -37.61553831103124  15.594433045722521  74.17744930410765  57.01961522079624  120.000000
1.0230000000000004  0.000000  0.000000  0.000000  -45.06988333602122  10.2469107223421  -3.459577243549239  39.61325981053285  3.024722818338718  2.999156170506494  -38.09874931805591  16.316812811507607  75.66330592904963  59.27151693381496  120.000000
1.0540000000000005  0.000000  0.000000  0.000000  -45.602991292192776  10.877981860612644  -2.1023521814960193  39.72106723684545  2.1892767357327663  2.474626365345283  -38.538749082520795  16.968882639067715  77.0829702172313  61.49551023077971  120.000000
1.0850000000000004  0.000000  0.000000  0.000000  -46.088359500034805  11.50038948629768  -0.7433722156843869  39.818923813824696  1.3840362425199348  1.96905455220001  -38.94158850232526  17.53865173529177  78.44027581172867  63.66660292428894  120.000000
1.1160000000000005  0.000000  0.000000  0.000000  -46.52263823358564  12.11873640967275  0.6028594696519876  39.904265076578575  0.6119663917117544  1.4924465859196576  -39.32092759169336  18.01775267995302  79.74388400249627  65.76019831073516  120.000000
1.1470000000000005  0.000000  0.000000  0.000000  -46.90552513100593  12.735019269247143  1.9246034663839835  39.97675345792491  -0.12470500547416151  1.0518509049303535  -39.690268654226756  18.40240045939754  81.00091616236276  67.75526320853248  120.000000
1.1780000000000006  0.000000  0.000000  0.000000  -47.240731990106774  13.345488310726706  3.213338248868506  40.03786938270482  -0.8220027506853429  0.6497996535126656  -40.06202747592872  18.69422855228285  82.21692515874955  69.63657708428477  120.000000
1.2090000000000005  0.000000  0.000000  0.000000  -47.53524485992851  13.939883748167373  4.4631574038530095  40.090636578517426  -1.473589338943226  0.28378705552689476  -40.44413518205984  18.89996646891348  83.39358818264542  71.395016052277  120.000000
1.2400000000000007  0.000000  0.000000  0.000000  -47.796818669423516  14.503566188788842  5.6706514682698606  40.13845311144377  -2.07092661050826  -0.05214538829282334  -40.84427080034914  19.03056893688499  84.5352899865704  73.02632813493646  120.000000
1.2710000000000006  0.000000  0.000000  0.000000  -48.03260263667651  15.020828425037827  6.834348410321373  40.186989947289746  -2.604841534238171  -0.36640357113032085  -41.26829577286885  19.098454342270898  85.64642408077628  74.52888648702377  120.000000
